<?xml version="1.0" encoding="UTF-8"?><svg id="Capa_2" xmlns="http://www.w3.org/2000/svg" width="600.4978" height="79.659" viewBox="0 0 600.4978 79.659"><defs><style>.cls-1{fill:#f3322c;}.cls-2{fill:#fff;}</style></defs><g id="Capa_1-2"><polygon class="cls-2" points="53.3571 26.4902 53.3571 39.8295 53.3571 53.1688 53.3571 66.5081 80.0357 66.5081 80.0357 53.1688 80.0357 39.8295 80.0357 26.4902 80.0357 13.1509 53.3571 13.1509 53.3571 26.4902"/><polygon class="cls-2" points="146.7321 13.1509 146.7321 26.4902 146.7321 39.8295 146.7321 53.1688 146.7321 66.5081 173.4107 66.5081 173.4107 53.1688 173.4107 39.8295 173.4107 26.4902 173.4107 13.1509 146.7321 13.1509"/><polygon points="80.0357 26.4902 80.0357 39.8295 80.0357 53.1688 80.0357 66.5081 106.7143 66.5081 106.7143 53.1688 106.7143 39.8295 106.7143 26.4902 106.7143 13.1509 80.0357 13.1509 80.0357 26.4902"/><polygon points="173.4107 13.1509 173.4107 26.4902 173.4107 39.8295 173.4107 53.1688 173.4107 66.5081 200.0893 66.5081 200.0893 53.1688 200.0893 39.8295 200.0893 26.4902 200.0893 13.1509 173.4107 13.1509"/><path class="cls-1" d="M132.7651,0v26.553h-13.2765V0H39.8295v26.553H0v39.8295h13.2765v-26.553h26.553v39.8295h79.659v-39.8295h13.2765v39.8295h79.659V0h-79.659ZM106.212,26.553v39.8295h-53.106V13.2765h53.106v13.2765ZM146.0416,66.3825V13.2765h53.106v53.106h-53.106Z"/><path class="cls-2" d="M268.7009,79.1484c-3.7012,0-7.1055-.6045-10.2129-1.8154s-5.8027-2.9238-8.0869-5.1406c-2.2861-2.2158-4.0674-4.8086-5.3467-7.7793-1.2793-2.9697-1.9189-6.2373-1.9189-9.8018s.6396-6.8301,1.9189-9.8008c1.2793-2.9697,3.0732-5.5625,5.3809-7.7793,2.3066-2.2158,5.0137-3.9287,8.1221-5.1406,3.1064-1.21,6.5332-1.8164,10.2803-1.8164,3.792,0,7.2656.6172,10.418,1.8506,3.1533,1.2344,5.8262,3.085,8.0195,5.5518l-4.25,4.25c-1.9648-1.9189-4.1016-3.3242-6.4082-4.2158-2.3076-.8906-4.8096-1.3359-7.5049-1.3359-2.7412,0-5.2891.457-7.6426,1.3711s-4.3857,2.1924-6.0996,3.8379c-1.7139,1.6445-3.0391,3.5986-3.9756,5.8604s-1.4043,4.7178-1.4043,7.3672c0,2.6045.4678,5.0381,1.4043,7.2998s2.2617,4.2266,3.9756,5.8945c1.7139,1.6689,3.7354,2.959,6.0654,3.8721,2.3311.915,4.8662,1.3711,7.6084,1.3711,2.5586,0,5.0137-.3994,7.3682-1.1992,2.3525-.7988,4.5342-2.1357,6.5449-4.0098l3.9072,5.209c-2.377,2.0117-5.1523,3.5303-8.3281,4.5576-3.1758,1.0283-6.4541,1.542-9.835,1.542ZM286.864,73.0488l-6.5801-.8906v-17.8203h6.5801v18.7109Z"/><path class="cls-2" d="M302.284,35.2832c-1.2793,0-2.3418-.4111-3.1865-1.2334-.8467-.8223-1.2686-1.8271-1.2686-3.0156,0-1.2334.4219-2.2617,1.2686-3.084.8447-.8232,1.9072-1.2344,3.1865-1.2344s2.3418.4014,3.1875,1.2002c.8447.7998,1.2676,1.793,1.2676,2.9814,0,1.2334-.4111,2.2734-1.2334,3.1182-.8223.8457-1.8965,1.2676-3.2217,1.2676ZM298.9949,78.6006v-36.3262h6.5791v36.3262h-6.5791Z"/><path class="cls-2" d="M312.908,47.6895v-5.415h23.166v5.415h-23.166ZM319.0759,78.6006v-39.5469c0-3.5645,1.0391-6.4092,3.1191-8.5332,2.0781-2.125,5.0371-3.1875,8.875-3.1875,1.416,0,2.7764.1719,4.0781.5137,1.3027.3428,2.4102.8809,3.3242,1.6113l-1.9873,5.0029c-.6855-.5479-1.4629-.9697-2.3301-1.2676-.8691-.2969-1.7822-.4453-2.7422-.4453-1.9189,0-3.3818.5371-4.3857,1.6104-1.0059,1.0742-1.5088,2.6621-1.5088,4.7637v4.8662l.1377,3.0156v31.5967h-6.5801Z"/><path class="cls-2" d="M341.7625,78.6006V30.623h9.1846l28.3066,34.5439h-4.4551V30.623h10.9658v47.9775h-9.1836l-28.3066-34.5439h4.4551v34.5439h-10.9668Z"/><path class="cls-2" d="M420.4451,79.4229c-3.793,0-7.2881-.6162-10.4863-1.8506-3.1992-1.2334-5.9863-2.9697-8.3613-5.209-2.377-2.2383-4.2158-4.8662-5.5176-7.8818-1.3027-3.0156-1.9541-6.3057-1.9541-9.8701,0-3.6084.6514-6.9102,1.9541-9.9033,1.3018-2.9922,3.1406-5.6084,5.5176-7.8477,2.375-2.2383,5.1504-3.9756,8.3271-5.209,3.1748-1.2344,6.6592-1.8506,10.4521-1.8506s7.2764.6055,10.4521,1.8164,5.9512,2.9365,8.3281,5.1738c2.375,2.2402,4.2148,4.8672,5.5166,7.8828,1.3027,3.0156,1.9541,6.3291,1.9541,9.9375,0,3.5645-.6514,6.8662-1.9541,9.9043-1.3018,3.0391-3.1416,5.6777-5.5166,7.916-2.377,2.2393-5.1523,3.9648-8.3281,5.1748-3.1758,1.2109-6.6377,1.8164-10.3838,1.8164ZM420.3767,70.0332c2.1475,0,4.123-.377,5.9287-1.1309,1.8047-.7539,3.3926-1.8271,4.7637-3.2217,1.3711-1.3926,2.4326-3.0156,3.1865-4.8662s1.1309-3.917,1.1309-6.2031c0-2.2842-.377-4.3516-1.1309-6.2021s-1.8154-3.4727-3.1865-4.8662-2.959-2.4678-4.7637-3.2217c-1.8057-.7539-3.7812-1.1309-5.9287-1.1309s-4.1357.377-5.9629,1.1309c-1.8281.7539-3.416,1.8281-4.7637,3.2217s-2.3984,3.0156-3.1523,4.8662-1.1309,3.918-1.1309,6.2021c0,2.2861.377,4.3525,1.1309,6.2031s1.8047,3.4736,3.1523,4.8662c1.3477,1.3945,2.9355,2.4678,4.7637,3.2217,1.8271.7539,3.8145,1.1309,5.9629,1.1309Z"/><path class="cls-2" d="M476.3045,79.4229c-6.8086,0-12.1309-1.8955-15.9697-5.6885-3.8379-3.792-5.7568-9.2295-5.7568-16.3125v-26.7988h11.1719v26.5244c0,4.5234.9355,7.8027,2.8105,9.8359,1.873,2.0332,4.4775,3.0498,7.8135,3.0498,3.3809,0,6.0078-1.0166,7.8818-3.0498,1.873-2.0332,2.8096-5.3125,2.8096-9.8359v-26.5244h10.8984v26.7988c0,7.083-1.9189,12.5205-5.7578,16.3125-3.8379,3.793-9.1387,5.6885-15.9014,5.6885Z"/><path class="cls-2" d="M508.9978,78.6006V30.623h9.1846l28.3066,34.5439h-4.4551V30.623h10.9658v47.9775h-9.1836l-28.3066-34.5439h4.4551v34.5439h-10.9668Z"/><path class="cls-2" d="M580.2107,79.4229c-3.8389,0-7.5293-.5137-11.0693-1.542-3.542-1.0283-6.3857-2.3643-8.5332-4.0098l3.7695-8.3613c2.0098,1.4629,4.4316,2.6621,7.2656,3.5977,2.832.9375,5.6885,1.4053,8.5674,1.4053,2.1934,0,3.9629-.2275,5.3115-.6855,1.3477-.4561,2.3408-1.0615,2.9814-1.8154.6396-.7549.96-1.6338.96-2.6396,0-1.2783-.5039-2.2959-1.5078-3.0498-1.0059-.7539-2.3428-1.3701-4.0098-1.8506-1.6689-.4795-3.4854-.9355-5.4492-1.3701-1.9648-.4346-3.9414-.96-5.9287-1.5771-1.9873-.6162-3.8154-1.4395-5.4834-2.4668-1.668-1.0283-2.9932-2.376-3.9746-4.0439-.9834-1.668-1.4736-3.7578-1.4736-6.2715,0-2.7412.7305-5.2432,2.1934-7.5049,1.4609-2.2617,3.6885-4.0664,6.6826-5.415,2.9922-1.3467,6.751-2.0215,11.2744-2.0215,3.0156,0,5.9971.3662,8.9443,1.0967,2.9473.7314,5.5176,1.7812,7.7109,3.1523l-3.4961,8.3623c-2.1484-1.2344-4.3633-2.1592-6.6484-2.7764s-4.4785-.9248-6.5791-.9248c-2.1934,0-3.9531.2393-5.2773.7197-1.3262.4795-2.2969,1.1309-2.9131,1.9531-.6172.8223-.9258,1.7373-.9258,2.7412,0,1.2803.5029,2.3076,1.5078,3.085s2.3311,1.3818,3.9756,1.8154c1.6445.4355,3.4717.8691,5.4834,1.3027,2.0098.4346,3.9971.9717,5.9629,1.6104,1.9639.6406,3.7695,1.4512,5.4141,2.4336,1.6455.9834,2.9814,2.3076,4.0098,3.9746,1.0283,1.6689,1.542,3.7363,1.542,6.2031,0,2.6973-.7432,5.1641-2.2275,7.4023-1.4854,2.2393-3.7354,4.0439-6.751,5.415-3.0156,1.3701-6.7852,2.0557-11.3086,2.0557Z"/></g></svg>