<?xml version="1.0" encoding="UTF-8"?><svg id="Capa_2" xmlns="http://www.w3.org/2000/svg" width="602.4161" height="109.6489" viewBox="0 0 602.4161 109.6489"><defs><style>.cls-1{fill:#f3322c;}.cls-2{font-family:Montserrat-Medium, Montserrat;font-variation-settings:'wght' 500;font-weight:500;}.cls-3{font-size:68.5395px;}.cls-4{fill:#fff;}.cls-5{font-family:Montserrat-Bold, Montserrat;font-variation-settings:'wght' 700;font-weight:700;letter-spacing:0em;}</style></defs><g id="Capa_1-2"><polygon class="cls-4" points="53.3571 26.4902 53.3571 39.8295 53.3571 53.1688 53.3571 66.5081 80.0357 66.5081 80.0357 53.1688 80.0357 39.8295 80.0357 26.4902 80.0357 13.1509 53.3571 13.1509 53.3571 26.4902"/><polygon class="cls-4" points="146.7321 13.1509 146.7321 26.4902 146.7321 39.8295 146.7321 53.1688 146.7321 66.5081 173.4107 66.5081 173.4107 53.1688 173.4107 39.8295 173.4107 26.4902 173.4107 13.1509 146.7321 13.1509"/><polygon points="80.0357 26.4902 80.0357 39.8295 80.0357 53.1688 80.0357 66.5081 106.7143 66.5081 106.7143 53.1688 106.7143 39.8295 106.7143 26.4902 106.7143 13.1509 80.0357 13.1509 80.0357 26.4902"/><polygon points="173.4107 13.1509 173.4107 26.4902 173.4107 39.8295 173.4107 53.1688 173.4107 66.5081 200.0893 66.5081 200.0893 53.1688 200.0893 39.8295 200.0893 26.4902 200.0893 13.1509 173.4107 13.1509"/><path class="cls-1" d="M132.7651,0v26.553h-13.2765V0H39.8295v26.553H0v39.8295h13.2765v-26.553h26.553v39.8295h79.659v-39.8295h13.2765v39.8295h79.659V0h-79.659ZM106.212,26.553v39.8295h-53.106V13.2765h53.106v13.2765ZM146.0416,66.3825V13.2765h53.106v53.106h-53.106Z"/><text class="cls-3" transform="translate(239.8457 78.6002)"><tspan class="cls-2" x="0" y="0">Gif</tspan><tspan class="cls-5" x="96.228" y="0">NOUNS</tspan></text></g></svg>

